<svg height="21" viewBox="0 0 100 21" width="100" xmlns="http://www.w3.org/2000/svg"><path d="m94.704 7.824v3.008h5.248v-4.96zm0 11.84 5.248-1.952v-2.992l-5.232-.016zm-62.752-2.176v-7.04c0-1.936-.704-3.344-2.128-4.16-.96-.576-2.224-.832-3.984-.832h-.016c-4.384 0-6.048 2.48-6.144 4.608v.08h3.888v-.064c.112-1.136.912-1.744 2.32-1.744.656 0 1.152.144 1.488.448.32.272.464.656.464 1.136 0 .928-.832 1.328-3.392 1.68-3.28.4-5.456 1.264-5.456 4.24 0 1.312.464 2.4 1.36 3.152.848.704 2.016 1.072 3.408 1.072 1.872 0 3.12-.592 4.144-1.968.08.688.24 1.264.464 1.584l.016.032h4.064v-.352l-.032-.016c-.32-.224-.464-.784-.464-1.856zm-3.984-2.784c0 1.504-1.2 2.56-2.912 2.56-.72 0-1.936-.208-1.936-1.552 0-1.168.864-1.568 2.576-1.936.784-.176 1.664-.384 2.288-.72zm12.544-9.248c-4.112 0-7.088 3.072-7.088 7.296 0 2.032.688 3.872 1.952 5.184 1.328 1.376 3.168 2.096 5.328 2.096 3.248 0 5.744-1.648 6.512-4.304l.032-.096h-4.048l-.016.032c-.448.864-1.264 1.296-2.432 1.296-1.824 0-2.944-1.088-3.232-3.136h9.952v-.08c.032-2.848-.736-5.104-2.224-6.544-1.264-1.136-2.864-1.728-4.736-1.744zm-2.944 5.904c.288-1.92 1.28-2.912 2.944-2.912 1.536 0 2.576 1.12 2.72 2.912zm47.936-5.856c-1.824 0-3.28.864-4.352 2.56-.72-1.696-1.984-2.56-3.776-2.56-1.84 0-3.184.8-4.112 2.448v-2.064h-4.016l-.016 13.776v.016h4.176v-7.856c0-1.728.928-2.88 2.288-2.88.624 0 1.104.208 1.424.592.336.4.496.976.496 1.712v8.416h4.176v-7.856c0-.848.208-1.568.608-2.08s.976-.784 1.648-.784c1.248 0 1.952.848 1.952 2.32v8.416h4.144v-9.072c.016-3.2-1.728-5.104-4.64-5.104zm-36.512-3.776v.016l-.016 17.888v.016l4.192.016h.016v-19.472h-.032zm-35.68 11.68c-.416 1.776-1.872 2.88-3.808 2.88-2.88 0-4.816-2.496-4.816-6.208 0-3.888 1.792-6.224 4.784-6.224 1.696 0 3.024.848 3.552 2.24l4.144-1.552a7.128 7.128 0 0 0 -2.384-2.992c-1.328-.992-3.152-1.504-5.28-1.504h-.016c-1.36 0-2.64.24-3.808.736a8.8 8.8 0 0 0 -2.992 2.064 9.324 9.324 0 0 0 -1.952 3.168c-.464 1.248-.704 2.608-.704 4.064 0 2.8.928 5.344 2.608 7.152 1.712 1.84 4.128 2.848 6.832 2.848h.016c2.624 0 4.608-.704 6.112-2.176a7.916 7.916 0 0 0 2.288-4.464v-.016zm50.256-7.536v7.792c0 .832-.24 1.536-.688 2.048-.464.528-1.104.8-1.856.8-1.36 0-2.112-.816-2.112-2.32v-8.336h-4.176v9.104c0 1.52.432 2.8 1.248 3.68.848.912 2.096 1.408 3.616 1.408 1.824 0 3.088-.704 4.112-2.272v1.888h3.968l.016-13.776v-.016z"/></svg>